<?xml version="1.0" encoding="UTF-8" standalone="no" ?>
<!DOCTYPE svg PUBLIC "-//W3C//DTD SVG 1.1//EN" "http://www.w3.org/Graphics/SVG/1.1/DTD/svg11.dtd">
<svg xmlns="http://www.w3.org/2000/svg" xmlns:xlink="http://www.w3.org/1999/xlink" version="1.1" width="277.18354080200197" height="61.13352000000003" xml:space="preserve">
<desc>Created with Fabric.js 1.6.0-rc.1</desc>
<defs></defs>
  <g transform="translate(162.34 35.45) scale(0.61 0.61)">
   <text font-family="Merkin" font-size="40" font-weight="normal" style="stroke: none; stroke-width: 1; stroke-dasharray: none; stroke-linecap: butt; stroke-linejoin: miter; stroke-miterlimit: 10; fill: #ffcc00; fill-rule: nonzero; opacity: 1;" ><tspan x="-172.38" y="8.98" style="stroke: none; stroke-width: 0; stroke-dasharray: none; stroke-linecap: butt; stroke-linejoin: miter; stroke-miterlimit: 4; fill: #ffcc00; fill-rule: ; opacity: 1;">B</tspan><tspan x="-141.3" y="8.98" style="stroke: none; stroke-width: 0; stroke-dasharray: none; stroke-linecap: butt; stroke-linejoin: miter; stroke-miterlimit: 4; fill: #ffcc00; fill-rule: ; opacity: 1;">u</tspan><tspan x="-114.22" y="8.98" style="stroke: none; stroke-width: 0; stroke-dasharray: none; stroke-linecap: butt; stroke-linejoin: miter; stroke-miterlimit: 4; fill: #ffcc00; fill-rule: ; opacity: 1;">i</tspan><tspan x="-100.3" y="8.98" style="stroke: none; stroke-width: 0; stroke-dasharray: none; stroke-linecap: butt; stroke-linejoin: miter; stroke-miterlimit: 4; fill: #ffcc00; fill-rule: ; opacity: 1;"> </tspan><tspan x="-86.02" y="8.98" style="stroke: none; stroke-width: 0; stroke-dasharray: none; stroke-linecap: butt; stroke-linejoin: miter; stroke-miterlimit: 4; fill: #ffcc00; fill-rule: ; opacity: 1;">N</tspan><tspan x="-52.94" y="8.98" style="stroke: none; stroke-width: 0; stroke-dasharray: none; stroke-linecap: butt; stroke-linejoin: miter; stroke-miterlimit: 4; fill: #ffcc00; fill-rule: ; opacity: 1;">a</tspan><tspan x="-25.86" y="8.98" style="stroke: none; stroke-width: 0; stroke-dasharray: none; stroke-linecap: butt; stroke-linejoin: miter; stroke-miterlimit: 4; fill: #ffcc00; fill-rule: ; opacity: 1;">m</tspan><tspan x="12.86" y="8.98" style="stroke: none; stroke-width: 0; stroke-dasharray: none; stroke-linecap: butt; stroke-linejoin: miter; stroke-miterlimit: 4; fill: #ffcc00; fill-rule: ; opacity: 1;"> </tspan><tspan x="27.14" y="8.98" style="stroke: none; stroke-width: 0; stroke-dasharray: none; stroke-linecap: butt; stroke-linejoin: miter; stroke-miterlimit: 4; fill: #ffcc00; fill-rule: ; opacity: 1;">T</tspan><tspan x="56.66" y="8.98" style="stroke: none; stroke-width: 0; stroke-dasharray: none; stroke-linecap: butt; stroke-linejoin: miter; stroke-miterlimit: 4; fill: #ffcc00; fill-rule: ; opacity: 1;">r</tspan><tspan x="79.38" y="8.98" style="stroke: none; stroke-width: 0; stroke-dasharray: none; stroke-linecap: butt; stroke-linejoin: miter; stroke-miterlimit: 4; fill: #ffcc00; fill-rule: ; opacity: 1;">a</tspan><tspan x="106.46" y="8.98" style="stroke: none; stroke-width: 0; stroke-dasharray: none; stroke-linecap: butt; stroke-linejoin: miter; stroke-miterlimit: 4; fill: #ffcc00; fill-rule: ; opacity: 1;">v</tspan><tspan x="132.62" y="8.98" style="stroke: none; stroke-width: 0; stroke-dasharray: none; stroke-linecap: butt; stroke-linejoin: miter; stroke-miterlimit: 4; fill: #ffcc00; fill-rule: ; opacity: 1;">e</tspan><tspan x="157.62" y="8.98" style="stroke: none; stroke-width: 0; stroke-dasharray: none; stroke-linecap: butt; stroke-linejoin: miter; stroke-miterlimit: 4; fill: #ffcc00; fill-rule: ; opacity: 1;">l</tspan></text>
 </g>
<g style="stroke: none; stroke-width: 1; stroke-dasharray: none; stroke-linecap: butt; stroke-linejoin: miter; stroke-miterlimit: 10; fill: none; fill-rule: nonzero; opacity: 1;" transform="translate(10 10) scale(0.62 0.63)" >
  <rect x="0" y="41.5" rx="0" ry="0" width="60" height="18" style="stroke: none; stroke-width: 1; stroke-dasharray: none; stroke-linecap: butt; stroke-linejoin: miter; stroke-miterlimit: 10; fill: #424A60; fill-rule: nonzero; opacity: 1;" transform=" matrix(1 0 0 1 0 0) "/>
  <path d="M 56 51.5 h -4 v -2 h 4 V 51.5 z M 48 51.5 h -4 v -2 h 4 V 51.5 z M 40 51.5 h -4 v -2 h 4 V 51.5 z M 32 51.5 h -4 v -2 h 4 V 51.5 z M 24 51.5 h -4 v -2 h 4 V 51.5 z M 16 51.5 h -4 v -2 h 4 V 51.5 z M 8 51.5 H 4 v -2 h 4 V 51.5 z" style="stroke: none; stroke-width: 1; stroke-dasharray: none; stroke-linecap: butt; stroke-linejoin: miter; stroke-miterlimit: 10; fill: #FFFFFF; fill-rule: nonzero; opacity: 1;" transform=" matrix(1 0 0 1 0 0) " stroke-linecap="round" />
  <path d="M 44.03 5.824 L 44.03 5.824 c -7.098 -7.098 -18.607 -7.098 -25.706 0 h 0 c -6.396 6.396 -7.116 18.44 -1.688 25.676 l 14.541 21 l 14.541 -21 C 51.146 24.263 50.426 12.22 44.03 5.824 z M 31.354 24.5 c -3.314 0 -6 -2.686 -6 -6 s 2.686 -6 6 -6 s 6 2.686 6 6 S 34.667 24.5 31.354 24.5 z" style="stroke: none; stroke-width: 1; stroke-dasharray: none; stroke-linecap: butt; stroke-linejoin: miter; stroke-miterlimit: 10; fill: #ffcc00; fill-rule: nonzero; opacity: 1;" transform=" matrix(1 0 0 1 0 0) " stroke-linecap="round" />
</g>
</svg>