<?xml version="1.0" encoding="UTF-8" standalone="no" ?>
<!DOCTYPE svg PUBLIC "-//W3C//DTD SVG 1.1//EN" "http://www.w3.org/Graphics/SVG/1.1/DTD/svg11.dtd">
<svg xmlns="http://www.w3.org/2000/svg" xmlns:xlink="http://www.w3.org/1999/xlink" version="1.1" width="234.57124999999994" height="58.59056" xml:space="preserve">
<desc>Created with Fabric.js 1.6.0-rc.1</desc>
<defs></defs>
  <g transform="translate(140.76 33.97) rotate(0.2) scale(0.61 0.58)">
   <text font-family="Arial" font-size="40" font-weight="bold" style="stroke: none; stroke-width: 1; stroke-dasharray: none; stroke-linecap: butt; stroke-linejoin: miter; stroke-miterlimit: 10; fill: #ffcc00; fill-rule: nonzero; opacity: 1;" ><tspan x="-137.81" y="8.98" style="stroke: none; stroke-width: 0; stroke-dasharray: none; stroke-linecap: butt; stroke-linejoin: miter; stroke-miterlimit: 4; fill: #ffcc00; fill-rule: ; opacity: 1;">B</tspan><tspan x="-111.13" y="8.98" style="stroke: none; stroke-width: 0; stroke-dasharray: none; stroke-linecap: butt; stroke-linejoin: miter; stroke-miterlimit: 4; fill: #ffcc00; fill-rule: ; opacity: 1;">u</tspan><tspan x="-88.89" y="8.98" style="stroke: none; stroke-width: 0; stroke-dasharray: none; stroke-linecap: butt; stroke-linejoin: miter; stroke-miterlimit: 4; fill: #ffcc00; fill-rule: ; opacity: 1;">i</tspan><tspan x="-80" y="8.98" style="stroke: none; stroke-width: 0; stroke-dasharray: none; stroke-linecap: butt; stroke-linejoin: miter; stroke-miterlimit: 4; fill: #ffcc00; fill-rule: ; opacity: 1;"> </tspan><tspan x="-68.89" y="8.98" style="stroke: none; stroke-width: 0; stroke-dasharray: none; stroke-linecap: butt; stroke-linejoin: miter; stroke-miterlimit: 4; fill: #ffcc00; fill-rule: ; opacity: 1;">N</tspan><tspan x="-40" y="8.98" style="stroke: none; stroke-width: 0; stroke-dasharray: none; stroke-linecap: butt; stroke-linejoin: miter; stroke-miterlimit: 4; fill: #ffcc00; fill-rule: ; opacity: 1;">a</tspan><tspan x="-17.75" y="8.98" style="stroke: none; stroke-width: 0; stroke-dasharray: none; stroke-linecap: butt; stroke-linejoin: miter; stroke-miterlimit: 4; fill: #ffcc00; fill-rule: ; opacity: 1;">m</tspan><tspan x="15.57" y="8.98" style="stroke: none; stroke-width: 0; stroke-dasharray: none; stroke-linecap: butt; stroke-linejoin: miter; stroke-miterlimit: 4; fill: #ffcc00; fill-rule: ; opacity: 1;"> </tspan><tspan x="26.68" y="8.98" style="stroke: none; stroke-width: 0; stroke-dasharray: none; stroke-linecap: butt; stroke-linejoin: miter; stroke-miterlimit: 4; fill: #ffcc00; fill-rule: ; opacity: 1;">T</tspan><tspan x="51.11" y="8.98" style="stroke: none; stroke-width: 0; stroke-dasharray: none; stroke-linecap: butt; stroke-linejoin: miter; stroke-miterlimit: 4; fill: #ffcc00; fill-rule: ; opacity: 1;">r</tspan><tspan x="64.43" y="8.98" style="stroke: none; stroke-width: 0; stroke-dasharray: none; stroke-linecap: butt; stroke-linejoin: miter; stroke-miterlimit: 4; fill: #ffcc00; fill-rule: ; opacity: 1;">a</tspan><tspan x="86.68" y="8.98" style="stroke: none; stroke-width: 0; stroke-dasharray: none; stroke-linecap: butt; stroke-linejoin: miter; stroke-miterlimit: 4; fill: #ffcc00; fill-rule: ; opacity: 1;">v</tspan><tspan x="106.68" y="8.98" style="stroke: none; stroke-width: 0; stroke-dasharray: none; stroke-linecap: butt; stroke-linejoin: miter; stroke-miterlimit: 4; fill: #ffcc00; fill-rule: ; opacity: 1;">e</tspan><tspan x="128.93" y="8.98" style="stroke: none; stroke-width: 0; stroke-dasharray: none; stroke-linecap: butt; stroke-linejoin: miter; stroke-miterlimit: 4; fill: #ffcc00; fill-rule: ; opacity: 1;">l</tspan></text>
 </g>
<g style="stroke: none; stroke-width: 1; stroke-dasharray: none; stroke-linecap: butt; stroke-linejoin: miter; stroke-miterlimit: 10; fill: none; fill-rule: nonzero; opacity: 1;" transform="translate(10 10) scale(0.24 0.2)" >
  <path d="M 71.406 117.994 s -15.749 13.678 -31.092 0 c 0 0 14.087 7.871 31.092 0 z M 104.708 117.994 s -15.745 13.678 -31.088 0 c 0 0 14.098 7.871 31.088 0 z M 138.015 117.994 s -15.745 13.678 -31.087 0 c 0 0 14.092 7.871 31.087 0 z M 171.321 117.994 s -15.745 13.678 -31.087 0 c 0 0 14.101 7.871 31.087 0 z M 53.642 132.008 s -15.754 13.678 -31.087 0 c 0 0 14.087 7.869 31.087 0 z M 86.947 132.008 s -15.753 13.678 -31.092 0 c 0 0 14.1 7.869 31.092 0 z M 120.255 132.008 s -15.751 13.678 -31.092 0 c 0 0 14.102 7.869 31.092 0 z M 153.561 132.008 s -15.749 13.678 -31.091 0 c 0 0 14.1 7.869 31.091 0 z M 186.872 132.008 s -15.754 13.678 -31.098 0 c 0 0 14.099 7.869 31.098 0 z M 71.406 147.178 s -15.749 13.672 -31.092 0 c 0 0 14.087 7.867 31.092 0 z M 104.708 147.178 s -15.745 13.672 -31.088 0 c 0 0 14.098 7.867 31.088 0 z M 138.015 147.178 s -15.745 13.672 -31.087 0 c 0 0 14.092 7.867 31.087 0 z M 171.321 147.178 s -15.745 13.672 -31.087 0 c 0 0 14.101 7.867 31.087 0 z M 55.855 157.061 s -15.752 13.676 -31.092 0 c 0.001 0 14.097 7.873 31.092 0 z M 89.163 157.061 s -15.753 13.676 -31.09 0 c 0 0 14.099 7.873 31.09 0 z M 122.47 157.061 s -15.75 13.676 -31.088 0 c 0 0 14.095 7.873 31.088 0 z M 155.774 157.061 s -15.748 13.676 -31.087 0 c 0.001 0 14.097 7.873 31.087 0 z" style="stroke: none; stroke-width: 1; stroke-dasharray: none; stroke-linecap: butt; stroke-linejoin: miter; stroke-miterlimit: 10; fill: #00578E; fill-rule: nonzero; opacity: 1;" transform="" stroke-linecap="round" />
  <path d="M 106.421 137.969 s -12.214 10.607 -24.109 0 c 0 0 10.932 6.107 24.109 0 z M 50.781 133.811 l 49.659 -15.655 v 2.717 l -49.659 15.945 z" style="stroke: none; stroke-width: 1; stroke-dasharray: none; stroke-linecap: butt; stroke-linejoin: miter; stroke-miterlimit: 10; fill: #00578E; fill-rule: nonzero; opacity: 1;" transform="" stroke-linecap="round" />
  <path d="M 129.607 37.247 c -3.945 -4.754 -12.774 -2.338 -12.774 -2.338 v 13.818 c 5.136 -8.78 10.574 -0.692 15.055 -2.085 c 5.479 -1.707 6.111 -7.073 6.111 -7.073 c -2.745 2.868 -4.459 2.439 -8.392 -2.322 z" style="stroke: none; stroke-width: 1; stroke-dasharray: none; stroke-linecap: butt; stroke-linejoin: miter; stroke-miterlimit: 10; fill: #FFCB4F; fill-rule: nonzero; opacity: 1;" transform="" stroke-linecap="round" />
  <path d="M 117.347 32.465 c 0 -0.92 -0.688 -1.663 -1.548 -1.663 c -0.854 0 -1.542 0.743 -1.542 1.663 c 0 0.646 0.354 1.208 0.863 1.482 l -2.838 102.966 l 3.946 2.465 V 34.051 c 0.647 -0.201 1.119 -0.836 1.119 -1.586 z" style="stroke: none; stroke-width: 1; stroke-dasharray: none; stroke-linecap: butt; stroke-linejoin: miter; stroke-miterlimit: 10; fill: #FFCB4F; fill-rule: nonzero; opacity: 1;" transform="" stroke-linecap="round" />
  <path d="M 50.346 126.984 c 5.931 1.707 32.062 7.338 109.437 6.936 c 0 0 1.917 -0.305 1.86 2.967 c -0.048 3.26 1.088 14.854 -2.797 14.854 h -9.807 a 5.242 5.242 0 0 0 -1.761 -0.668 c -3.651 -0.697 -8.119 -4.787 -11.914 -3.51 c -1.726 0.576 -3.416 1.486 -5.062 2.27 c -1.727 0.811 -3.693 1.01 -5.473 1.701 a 4.712 4.712 0 0 0 -0.485 0.207 h -8.573 a 6.061 6.061 0 0 0 -1.16 -0.363 c -3.746 -0.74 -6.915 -3.346 -10.774 -3.617 c -3.549 -0.25 -6.604 2.18 -9.846 3.313 c -0.5 0.176 -0.933 0.402 -1.331 0.668 H 80.49 c -0.069 -0.051 -0.141 -0.094 -0.213 -0.145 c -1.53 -0.924 -3.243 -1.508 -4.808 -2.398 c -1.739 -0.992 -3.489 -1.727 -5.526 -1.674 c -2.479 0.08 -4.25 1.559 -6.34 2.643 c -0.903 0.467 -1.892 0.777 -2.906 1.037 c -2.944 -1.582 -10.794 -7.215 -14.666 -23.58 c 0 -0.002 -1.617 -2.35 4.315 -0.641 z" style="stroke: none; stroke-width: 1; stroke-dasharray: none; stroke-linecap: butt; stroke-linejoin: miter; stroke-miterlimit: 10; fill: #FFCB4F; fill-rule: nonzero; opacity: 1;" transform="" stroke-linecap="round" />
  <path d="M 130.441 130.701 s -39.26 -3.885 -55.477 -8.844 c -16.209 -4.955 -31.613 1.1 -32.155 4.506 c 0 0 -3.017 -67.81 74.163 -80.68 c 0.001 0 -49.638 51.653 13.469 85.018 z" style="stroke: none; stroke-width: 1; stroke-dasharray: none; stroke-linecap: butt; stroke-linejoin: miter; stroke-miterlimit: 10; fill: #FFCB4F; fill-rule: nonzero; opacity: 1;" transform="" stroke-linecap="round" />
  <path d="M 118.181 51.516 v 69.74 s 41.398 10.246 48.442 0 c 0 0 -19.097 -0.199 -48.442 -69.74 z" style="stroke: none; stroke-width: 1; stroke-dasharray: none; stroke-linecap: butt; stroke-linejoin: miter; stroke-miterlimit: 10; fill: #FFCB4F; fill-rule: nonzero; opacity: 1;" transform="" stroke-linecap="round" />
</g>
</svg>